<svg width="50" height="53" viewBox="0 0 50 53" fill="none" xmlns="http://www.w3.org/2000/svg">
<g id="gg:menu-right">
<path id="Vector" d="M45.8332 39.9178C45.8332 41.1106 44.904 42.0757 43.7603 42.0757H27.0728C26.523 42.0757 25.9957 41.8483 25.607 41.4436C25.2182 41.039 24.9998 40.4901 24.9998 39.9178C24.9998 39.3455 25.2182 38.7966 25.607 38.3919C25.9957 37.9872 26.523 37.7599 27.0728 37.7599H43.7603C44.9061 37.7599 45.8332 38.725 45.8332 39.9178ZM45.8332 26.8945C45.8332 28.0873 44.904 29.0524 43.7603 29.0524H6.23942C5.68965 29.0524 5.16239 28.8251 4.77365 28.4204C4.3849 28.0157 4.1665 27.4668 4.1665 26.8945C4.1665 26.3222 4.3849 25.7734 4.77365 25.3687C5.16239 24.964 5.68965 24.7366 6.23942 24.7366H43.7603C44.9061 24.7366 45.8332 25.7039 45.8332 26.8945ZM43.7603 16.0292C44.31 16.0292 44.8373 15.8018 45.226 15.3971C45.6148 14.9924 45.8332 14.4436 45.8332 13.8713C45.8332 13.299 45.6148 12.7501 45.226 12.3454C44.8373 11.9407 44.31 11.7134 43.7603 11.7134H18.7394C18.4672 11.7134 18.1976 11.7692 17.9461 11.8776C17.6947 11.9861 17.4661 12.145 17.2736 12.3454C17.0812 12.5458 16.9285 12.7837 16.8243 13.0455C16.7201 13.3073 16.6665 13.5879 16.6665 13.8713C16.6665 14.1546 16.7201 14.4353 16.8243 14.6971C16.9285 14.9589 17.0812 15.1968 17.2736 15.3971C17.4661 15.5975 17.6947 15.7565 17.9461 15.8649C18.1976 15.9733 18.4672 16.0292 18.7394 16.0292H43.7603Z" fill="#F5F5F5"/>
</g>
</svg>
